<svg width="50" height="50" viewBox="0 0 50 50" fill="none" xmlns="http://www.w3.org/2000/svg">
<rect width="50" height="50" rx="25" fill="#FCF4E7"/>
<path d="M28.5 20.5C28.5 22.433 26.933 24 25 24C23.067 24 21.5 22.433 21.5 20.5C21.5 18.567 23.067 17 25 17C26.933 17 28.5 18.567 28.5 20.5Z" fill="#593B20"/>
<path d="M31 29.5C31 31.433 28.3137 33 25 33C21.6863 33 19 31.433 19 29.5C19 27.567 21.6863 26 25 26C28.3137 26 31 27.567 31 29.5Z" fill="#593B20"/>
<path d="M20.122 18C20.2995 18 20.4728 18.0174 20.6401 18.0506C20.2325 18.7745 20 19.6101 20 20.5C20 21.3683 20.2213 22.1848 20.6106 22.8964C20.4524 22.9258 20.2891 22.9413 20.122 22.9413C18.7076 22.9413 17.561 21.8351 17.561 20.4706C17.561 19.1061 18.7076 18 20.122 18Z" fill="#593B20"/>
<path d="M18.4473 31.986C17.8794 31.3071 17.5 30.474 17.5 29.5C17.5 28.5558 17.8566 27.744 18.3958 27.0767C16.4911 27.2245 15 28.2662 15 29.5294C15 30.8044 16.5173 31.8538 18.4473 31.986Z" fill="#593B20"/>
<path d="M29.9999 20.5C29.9999 21.3683 29.7786 22.1848 29.3893 22.8964C29.5475 22.9258 29.7108 22.9413 29.8779 22.9413C31.2923 22.9413 32.4389 21.8351 32.4389 20.4706C32.4389 19.1061 31.2923 18 29.8779 18C29.7004 18 29.5272 18.0174 29.3599 18.0506C29.7674 18.7745 29.9999 19.6101 29.9999 20.5Z" fill="#593B20"/>
<path d="M31.5526 31.986C33.4826 31.8538 34.9999 30.8044 34.9999 29.5294C34.9999 28.2662 33.5088 27.2245 31.6041 27.0767C32.1433 27.744 32.4999 28.5558 32.4999 29.5C32.4999 30.474 32.1205 31.3071 31.5526 31.986Z" fill="#593B20"/>
</svg>
