<svg width="50" height="50" viewBox="0 0 50 50" fill="none" xmlns="http://www.w3.org/2000/svg">
<rect width="50" height="50" rx="25" fill="#FCF4E7"/>
<path fill-rule="evenodd" clip-rule="evenodd" d="M15 14.25C14.5858 14.25 14.25 14.5858 14.25 15C14.25 15.4142 14.5858 15.75 15 15.75H17V23.5C17 26.5641 17 28.0962 18.0042 29.0481C19.0084 30 20.6247 30 23.8571 30H24.25V33.5365L22.6646 34.3292C22.2941 34.5144 22.1439 34.9649 22.3292 35.3354C22.5144 35.7059 22.9649 35.8561 23.3354 35.6708L25 34.8385L26.6646 35.6708C27.0351 35.8561 27.4856 35.7059 27.6708 35.3354C27.8561 34.9649 27.7059 34.5144 27.3354 34.3292L25.75 33.5365V30H26.1429C29.3753 30 30.9916 30 31.9958 29.0481C33 28.0962 33 26.5641 33 23.5V15.75H35C35.4142 15.75 35.75 15.4142 35.75 15C35.75 14.5858 35.4142 14.25 35 14.25H15ZM28.5303 20.9697C28.8232 21.2626 28.8232 21.7374 28.5303 22.0303L27.2131 23.3476C27.0681 23.4927 26.9113 23.6496 26.7612 23.7642C26.5852 23.8984 26.3335 24.0429 26 24.0429C25.6665 24.0429 25.4148 23.8984 25.2388 23.7642C25.0887 23.6496 24.9319 23.4927 24.7869 23.3476L24.1768 22.7374C24.1067 22.6674 24.0499 22.6106 24 22.5623C23.9501 22.6106 23.8933 22.6674 23.8232 22.7374L22.5303 24.0303C22.2374 24.3232 21.7626 24.3232 21.4697 24.0303C21.1768 23.7374 21.1768 23.2626 21.4697 22.9697L22.7869 21.6524C22.9319 21.5073 23.0887 21.3504 23.2388 21.2358C23.4148 21.1016 23.6665 20.9571 24 20.9571C24.3335 20.9571 24.5852 21.1016 24.7612 21.2358C24.9113 21.3504 25.0681 21.5073 25.213 21.6524L25.8232 22.2626C25.8933 22.3326 25.9501 22.3894 26 22.4377C26.0499 22.3894 26.1067 22.3326 26.1768 22.2626L27.4697 20.9697C27.7626 20.6768 28.2374 20.6768 28.5303 20.9697Z" fill="#593B20"/>
</svg>
