<svg width="50" height="50" viewBox="0 0 50 50" fill="none" xmlns="http://www.w3.org/2000/svg">
<rect width="50" height="50" rx="25" fill="#FCF4E7"/>
<path d="M20 17.8294C20 19.3771 21.7259 21.0076 23.1497 22.0893C23.9489 22.6964 24.3484 23 25 23C25.6516 23 26.0512 22.6964 26.8503 22.0893C28.2741 21.0076 30 19.3772 30 17.8293C30 15.0392 27.2499 13.9975 25 16.1528C22.7501 13.9975 20 15.0392 20 17.8294Z" fill="#593B20"/>
<path d="M19.2599 34.3884H19C18.0572 34.3884 17.5858 34.3884 17.2929 34.0955C17 33.8026 17 33.3312 17 32.3884V31.2764C17 30.7579 17 30.4987 17.1332 30.2672C17.2664 30.0356 17.4673 29.9188 17.8691 29.6851C20.5146 28.1464 24.2715 27.2803 26.7791 28.7759C26.9475 28.8764 27.0991 28.9977 27.2285 29.1431C27.7866 29.77 27.746 30.7161 27.1028 31.2775C26.9669 31.396 26.8222 31.486 26.6764 31.5172C26.7962 31.5033 26.911 31.4874 27.0206 31.4699C27.932 31.3245 28.697 30.8375 29.3974 30.3084L31.2046 28.9433C31.8417 28.462 32.7873 28.4619 33.4245 28.943C33.9982 29.3762 34.1736 30.0894 33.8109 30.6707C33.388 31.3487 32.7921 32.216 32.2199 32.7459C31.6469 33.2766 30.7939 33.7504 30.0975 34.0865C29.326 34.4589 28.4738 34.6734 27.6069 34.8138C25.8488 35.0983 24.0166 35.0549 22.2763 34.6964C21.2925 34.4937 20.2708 34.3884 19.2599 34.3884Z" fill="#593B20"/>
</svg>
