<svg width="50" height="50" viewBox="0 0 50 50" fill="none" xmlns="http://www.w3.org/2000/svg">
<rect width="50" height="50" rx="25" fill="#FCF4E7"/>
<path fill-rule="evenodd" clip-rule="evenodd" d="M17.1716 16.1716C16 17.3431 16 19.2288 16 23V27C16 30.7712 16 32.6569 17.1716 33.8284C18.3431 35 20.2288 35 24 35H26C29.7712 35 31.6569 35 32.8284 33.8284C34 32.6569 34 30.7712 34 27V23C34 19.2288 34 17.3431 32.8284 16.1716C31.6569 15 29.7712 15 26 15H24C20.2288 15 18.3431 15 17.1716 16.1716ZM20.25 21C20.25 20.5858 20.5858 20.25 21 20.25H29C29.4142 20.25 29.75 20.5858 29.75 21C29.75 21.4142 29.4142 21.75 29 21.75H21C20.5858 21.75 20.25 21.4142 20.25 21ZM20.25 25C20.25 24.5858 20.5858 24.25 21 24.25H29C29.4142 24.25 29.75 24.5858 29.75 25C29.75 25.4142 29.4142 25.75 29 25.75H21C20.5858 25.75 20.25 25.4142 20.25 25ZM21 28.25C20.5858 28.25 20.25 28.5858 20.25 29C20.25 29.4142 20.5858 29.75 21 29.75H26C26.4142 29.75 26.75 29.4142 26.75 29C26.75 28.5858 26.4142 28.25 26 28.25H21Z" fill="#593B20"/>
</svg>
