<svg width="50" height="50" viewBox="0 0 50 50" fill="none" xmlns="http://www.w3.org/2000/svg">
<rect width="50" height="50" rx="25" fill="#FCF4E7"/>
<path d="M15.7546 27.716L16.2722 29.6479C16.8765 31.9029 17.1786 33.0305 17.8635 33.7618C18.4043 34.3392 19.1042 34.7433 19.8747 34.9229C20.8504 35.1504 21.978 34.8483 24.2331 34.244C26.4881 33.6398 27.6157 33.3377 28.347 32.6528C28.4077 32.5959 28.4664 32.5373 28.5233 32.477C28.1891 32.449 27.852 32.3952 27.5094 32.3271C26.8133 32.1887 25.9862 31.967 25.008 31.7049L24.9012 31.6763L24.8764 31.6697C23.8121 31.3845 22.9228 31.1457 22.2128 30.8892C21.4661 30.6195 20.7876 30.287 20.2115 29.7474C19.4175 29.0038 18.8619 28.0414 18.6149 26.982C18.4357 26.2133 18.4869 25.4594 18.6267 24.6779C18.7606 23.929 19.0011 23.0315 19.2893 21.9561L19.2893 21.9561L19.8237 19.9617L19.8424 19.8916C17.9219 20.409 16.911 20.7151 16.2369 21.3465C15.6595 21.8873 15.2554 22.5871 15.0757 23.3576C14.8482 24.3334 15.1503 25.4609 15.7546 27.716Z" fill="#593B20"/>
<path fill-rule="evenodd" clip-rule="evenodd" d="M33.8293 23.7154L33.3116 25.6473C32.7074 27.9024 32.4052 29.0299 31.7203 29.7612C31.1795 30.3386 30.4796 30.7427 29.7092 30.9223C29.6129 30.9448 29.5152 30.9621 29.415 30.9744C28.4999 31.0873 27.3834 30.7881 25.3508 30.2435C23.0957 29.6392 21.9682 29.3371 21.2369 28.6522C20.6595 28.1114 20.2554 27.4115 20.0757 26.641C19.8482 25.6652 20.1503 24.5377 20.7546 22.2826L21.2722 20.3508C21.3591 20.0265 21.4398 19.7254 21.5162 19.4456C21.9713 17.7796 22.2771 16.863 22.8635 16.2369C23.4043 15.6595 24.1042 15.2554 24.8747 15.0757C25.8504 14.8482 26.978 15.1503 29.2331 15.7546C31.4881 16.3588 32.6157 16.661 33.347 17.3459C33.9244 17.8867 34.3285 18.5866 34.5081 19.357C34.7356 20.3328 34.4335 21.4603 33.8293 23.7154ZM24.0524 22.8059C24.1596 22.4058 24.5709 22.1683 24.971 22.2756L29.8006 23.5697C30.2007 23.6769 30.4381 24.0881 30.3309 24.4882C30.2237 24.8883 29.8125 25.1257 29.4124 25.0185L24.5827 23.7244C24.1826 23.6172 23.9452 23.206 24.0524 22.8059ZM23.2756 25.7033C23.3828 25.3032 23.794 25.0658 24.1941 25.173L27.0919 25.9495C27.492 26.0567 27.7294 26.4679 27.6222 26.868C27.515 27.2681 27.1038 27.5056 26.7037 27.3984L23.8059 26.6219C23.4058 26.5147 23.1683 26.1034 23.2756 25.7033Z" fill="#593B20"/>
</svg>
