<svg width="50" height="50" viewBox="0 0 50 50" fill="none" xmlns="http://www.w3.org/2000/svg">
<rect width="50" height="50" rx="25" fill="#FCF4E7"/>
<path d="M34.1938 15.8062C35.2687 16.8812 35.2687 18.6241 34.1938 19.6991L33.6982 20.1947C33.5539 20.1634 33.3722 20.1159 33.1651 20.044C32.6108 19.8517 31.8823 19.4883 31.197 18.803C30.5117 18.1177 30.1483 17.3892 29.956 16.8349C29.8841 16.6278 29.8366 16.4461 29.8053 16.3018L30.3009 15.8062C31.3759 14.7313 33.1188 14.7313 34.1938 15.8062Z" fill="#593B20"/>
<path d="M27.5801 26.3128C27.1761 26.7168 26.9741 26.9188 26.7513 27.0926C26.4886 27.2975 26.2043 27.4732 25.9035 27.6166C25.6485 27.7381 25.3775 27.8284 24.8354 28.0091L21.9771 28.9619C21.7103 29.0508 21.4163 28.9814 21.2174 28.7826C21.0186 28.5837 20.9492 28.2897 21.0381 28.0229L21.9909 25.1646C22.1716 24.6225 22.2619 24.3515 22.3834 24.0965C22.5268 23.7957 22.7025 23.5114 22.9074 23.2487C23.0812 23.0259 23.2832 22.8239 23.6872 22.4199L28.6033 17.5038C28.867 18.198 29.3293 19.0566 30.1363 19.8637C30.9434 20.6707 31.802 21.133 32.4962 21.3967L27.5801 26.3128Z" fill="#593B20"/>
<path d="M25 35C30.5228 35 35 30.5228 35 25C35 23.8082 34.7915 22.6651 34.409 21.6052L28.586 27.4283C28.2347 27.7797 27.9708 28.0437 27.6738 28.2753C27.3252 28.5473 26.948 28.7804 26.5488 28.9706C26.2088 29.1327 25.8546 29.2506 25.3833 29.4076L22.4514 30.3849C21.6457 30.6535 20.7573 30.4438 20.1568 29.8432C19.5562 29.2427 19.3465 28.3543 19.6151 27.5486L20.5924 24.6167C20.7494 24.1453 20.8673 23.7912 21.0294 23.4512C21.2196 23.052 21.4527 22.6748 21.7247 22.3262C21.9563 22.0292 22.2203 21.7653 22.5717 21.414L28.3948 15.591C27.3349 15.2085 26.1918 15 25 15C19.4772 15 15 19.4772 15 25C15 30.5228 19.4772 35 25 35Z" fill="#593B20"/>
</svg>
