<svg width="50" height="50" viewBox="0 0 50 50" fill="none" xmlns="http://www.w3.org/2000/svg">
<rect width="50" height="50" rx="25" fill="#FCF4E7"/>
<path fill-rule="evenodd" clip-rule="evenodd" d="M26.0867 34.3877L26.6288 33.4718C27.0492 32.7614 27.2595 32.4062 27.5972 32.2098C27.9349 32.0134 28.36 32.0061 29.2104 31.9915C30.4658 31.9698 31.2531 31.8929 31.9134 31.6194C33.1386 31.1119 34.1119 30.1386 34.6194 28.9134C35 27.9946 35 26.8297 35 24.5V23.5C35 20.2266 35 18.5899 34.2632 17.3875C33.8509 16.7147 33.2853 16.1491 32.6125 15.7368C31.4101 15 29.7734 15 26.5 15H23.5C20.2266 15 18.5899 15 17.3875 15.7368C16.7147 16.1491 16.1491 16.7147 15.7368 17.3875C15 18.5899 15 20.2266 15 23.5V24.5C15 26.8297 15 27.9946 15.3806 28.9134C15.8881 30.1386 16.8614 31.1119 18.0866 31.6194C18.7469 31.8929 19.5342 31.9698 20.7896 31.9915C21.6399 32.0061 22.0651 32.0134 22.4028 32.2098C22.7405 32.4063 22.9507 32.7614 23.3712 33.4718L23.9133 34.3877C24.3965 35.204 25.6035 35.204 26.0867 34.3877ZM28.5303 21.4697C28.8232 21.7626 28.8232 22.2374 28.5303 22.5303L24.5303 26.5303C24.2417 26.819 23.7751 26.8238 23.4806 26.541L21.4806 24.621C21.1818 24.3342 21.1721 23.8594 21.459 23.5606C21.7458 23.2618 22.2206 23.2521 22.5194 23.539L23.9893 24.9501L27.4697 21.4697C27.7626 21.1768 28.2374 21.1768 28.5303 21.4697Z" fill="#593B20"/>
</svg>
