<svg width="60" height="60" viewBox="0 0 60 60" fill="none" xmlns="http://www.w3.org/2000/svg">
<rect width="60" height="60" rx="16" fill="#593B20"/>
<path d="M13.336 36.5C13.216 36.5 13.114 36.458 13.03 36.374C12.946 36.29 12.904 36.188 12.904 36.068V24.35C12.904 24.218 12.946 24.11 13.03 24.026C13.114 23.942 13.216 23.9 13.336 23.9H18.16C19.096 23.9 19.912 24.05 20.608 24.35C21.304 24.638 21.844 25.082 22.228 25.682C22.612 26.27 22.804 27.008 22.804 27.896C22.804 28.796 22.612 29.54 22.228 30.128C21.844 30.704 21.304 31.136 20.608 31.424C19.912 31.712 19.096 31.856 18.16 31.856H15.478V36.068C15.478 36.188 15.436 36.29 15.352 36.374C15.28 36.458 15.178 36.5 15.046 36.5H13.336ZM15.442 29.858H18.07C18.766 29.858 19.3 29.696 19.672 29.372C20.044 29.036 20.23 28.544 20.23 27.896C20.23 27.296 20.056 26.816 19.708 26.456C19.36 26.084 18.814 25.898 18.07 25.898H15.442V29.858ZM25.9012 36.5C25.7812 36.5 25.6792 36.458 25.5952 36.374C25.5112 36.29 25.4692 36.188 25.4692 36.068V24.35C25.4692 24.218 25.5112 24.11 25.5952 24.026C25.6792 23.942 25.7812 23.9 25.9012 23.9H30.2932C31.5052 23.9 32.5012 24.086 33.2812 24.458C34.0732 24.83 34.6672 25.382 35.0632 26.114C35.4712 26.846 35.6812 27.74 35.6932 28.796C35.7172 29.324 35.7292 29.792 35.7292 30.2C35.7292 30.608 35.7172 31.07 35.6932 31.586C35.6692 32.702 35.4652 33.626 35.0812 34.358C34.6972 35.078 34.1152 35.618 33.3352 35.978C32.5672 36.326 31.5832 36.5 30.3832 36.5H25.9012ZM27.9712 34.43H30.2932C30.9652 34.43 31.5112 34.334 31.9312 34.142C32.3512 33.95 32.6572 33.644 32.8492 33.224C33.0532 32.792 33.1612 32.228 33.1732 31.532C33.1852 31.172 33.1912 30.86 33.1912 30.596C33.2032 30.32 33.2032 30.05 33.1912 29.786C33.1912 29.51 33.1852 29.198 33.1732 28.85C33.1492 27.866 32.9032 27.14 32.4352 26.672C31.9672 26.204 31.2232 25.97 30.2032 25.97H27.9712V34.43ZM39.2575 36.5C39.1375 36.5 39.0355 36.458 38.9515 36.374C38.8675 36.29 38.8255 36.188 38.8255 36.068V24.35C38.8255 24.218 38.8675 24.11 38.9515 24.026C39.0355 23.942 39.1375 23.9 39.2575 23.9H47.0695C47.2015 23.9 47.3095 23.942 47.3935 24.026C47.4775 24.11 47.5195 24.218 47.5195 24.35V25.61C47.5195 25.742 47.4775 25.85 47.3935 25.934C47.3095 26.006 47.2015 26.042 47.0695 26.042H41.2915V29.462H46.7095C46.8415 29.462 46.9495 29.504 47.0335 29.588C47.1175 29.672 47.1595 29.78 47.1595 29.912V31.172C47.1595 31.292 47.1175 31.394 47.0335 31.478C46.9495 31.562 46.8415 31.604 46.7095 31.604H41.2915V36.068C41.2915 36.188 41.2495 36.29 41.1655 36.374C41.0815 36.458 40.9735 36.5 40.8415 36.5H39.2575Z" fill="#F5EFE1"/>
</svg>
