<svg width="50" height="50" viewBox="0 0 50 50" fill="none" xmlns="http://www.w3.org/2000/svg">
<circle cx="25" cy="25" r="25" fill="#593B20"/>
<path d="M19.0736 33C18.8976 33 18.7616 32.952 18.6656 32.856C18.5696 32.744 18.5216 32.608 18.5216 32.448V16.776C18.5216 16.6 18.5696 16.464 18.6656 16.368C18.7616 16.256 18.8976 16.2 19.0736 16.2H30.9056C31.0816 16.2 31.2176 16.256 31.3136 16.368C31.4256 16.464 31.4816 16.6 31.4816 16.776V32.448C31.4816 32.608 31.4256 32.744 31.3136 32.856C31.2176 32.952 31.0816 33 30.9056 33H29.6816C29.5216 33 29.3856 32.952 29.2736 32.856C29.1776 32.744 29.1296 32.608 29.1296 32.448V18.36H20.8736V32.448C20.8736 32.608 20.8176 32.744 20.7056 32.856C20.6096 32.952 20.4736 33 20.2976 33H19.0736Z" fill="white"/>
</svg>
