<svg width="50" height="50" viewBox="0 0 50 50" fill="none" xmlns="http://www.w3.org/2000/svg">
<rect width="50" height="50" rx="25" fill="#593B20"/>
<path d="M23 29H18V34M27 21H32V16M17.583 22.0034C18.1437 20.6157 19.0824 19.413 20.2926 18.5322C21.5027 17.6514 22.9369 17.1275 24.4298 17.0205C25.9227 16.9135 27.4147 17.2274 28.7381 17.9266C30.0615 18.6258 31.1612 19.6825 31.9141 20.9761M32.4176 27.9971C31.8569 29.3848 30.9181 30.5874 29.708 31.4682C28.4979 32.3491 27.0652 32.8723 25.5723 32.9793C24.0794 33.0863 22.5861 32.7725 21.2627 32.0732C19.9393 31.374 18.8388 30.3175 18.0859 29.0239" stroke="#F2F2F2" stroke-width="2" stroke-linecap="round" stroke-linejoin="round"/>
</svg>
